<?xml version="1.0" standalone="no"?>
<!DOCTYPE svg PUBLIC "-//W3C//DTD SVG 20010904//EN"
 "http://www.w3.org/TR/2001/REC-SVG-20010904/DTD/svg10.dtd">
<svg version="1.0" xmlns="http://www.w3.org/2000/svg"
 width="820.000000pt" height="932.000000pt" viewBox="0 0 820.000000 932.000000"
 preserveAspectRatio="xMidYMid meet">
<metadata>
Created by potrace 1.16, written by Peter Selinger 2001-2019
</metadata>
<g transform="translate(0.000000,932.000000) scale(0.100000,-0.100000)"
fill="#000000" stroke="none">
<path d="M5285 8693 c-68 -15 -215 -65 -215 -73 0 -6 -9 -10 -19 -10 -11 0
-23 -5 -26 -10 -4 -6 -10 -8 -15 -5 -4 3 -13 -2 -20 -10 -7 -8 -18 -15 -25
-15 -8 0 -15 -4 -17 -8 -1 -5 -30 -23 -63 -42 -76 -43 -245 -212 -245 -246 0
-8 -3 -14 -7 -14 -16 0 -105 -209 -107 -248 -1 -16 -7 -36 -13 -44 -7 -8 -19
-47 -28 -87 -8 -40 -20 -81 -25 -92 -6 -11 -8 -25 -4 -31 4 -6 3 -8 -4 -4 -6
3 -15 -2 -21 -11 -6 -10 -11 -13 -11 -8 0 6 -5 3 -10 -5 -7 -11 -10 1 -11 40
l-1 55 -13 -35 c-7 -19 -14 -30 -14 -25 -1 6 -6 3 -11 -5 -7 -11 -10 -11 -10
-2 0 7 -5 10 -10 7 -6 -3 -14 5 -20 19 -9 25 -30 36 -30 16 0 -5 -5 -10 -11
-10 -5 0 -7 5 -4 10 3 6 1 10 -4 10 -6 0 -10 5 -8 11 1 6 -4 14 -12 17 -10 3
-13 -2 -9 -22 6 -32 -11 -47 -19 -16 -3 13 -11 19 -20 16 -8 -3 -11 -2 -8 3 3
5 1 12 -4 15 -5 3 -12 -9 -16 -27 -6 -25 -9 -28 -12 -12 -8 34 -22 39 -29 11
-5 -19 -10 -24 -19 -16 -17 14 -24 3 -18 -32 3 -23 2 -28 -9 -22 -26 16 -39
13 -32 -8 4 -14 2 -18 -5 -14 -8 5 -8 0 -1 -20 6 -15 8 -29 5 -32 -3 -3 -5 1
-5 9 0 12 -2 11 -10 -1 -6 -8 -8 -28 -5 -45 l4 -30 -11 28 c-12 27 -35 40 -25
13 4 -9 -1 -16 -11 -19 -14 -3 -12 -6 8 -15 14 -6 20 -11 14 -11 -6 -1 -9 -14
-6 -32 3 -22 1 -30 -7 -25 -6 4 -11 13 -11 20 0 8 -8 20 -17 27 -15 11 -16 11
-5 -1 6 -8 12 -18 12 -23 0 -4 -6 -5 -12 -1 -7 4 -3 -3 9 -15 12 -11 28 -21
35 -21 9 -1 8 -5 -3 -13 -15 -11 -15 -16 -3 -37 7 -14 13 -34 13 -45 0 -15 -3
-14 -11 8 -5 15 -16 27 -24 27 -11 0 -12 -4 -4 -19 5 -11 10 -28 10 -39 0 -11
7 -25 15 -32 8 -7 13 -16 10 -20 -3 -5 -1 -11 5 -15 5 -3 10 -12 10 -18 0 -7
-10 0 -21 16 -11 15 -26 24 -32 20 -7 -4 -8 0 -4 11 4 9 3 15 -2 11 -5 -3 -12
1 -14 7 -4 8 -6 9 -6 2 -1 -16 27 -69 36 -69 5 0 8 -5 8 -12 0 -6 4 -15 8 -19
14 -15 7 -25 -12 -15 -16 9 -17 7 -13 -16 4 -22 2 -25 -13 -19 -15 5 -16 4 -6
-8 10 -12 8 -16 -8 -21 -12 -3 -21 -13 -21 -21 0 -8 -5 -14 -11 -14 -5 0 -7
-4 -4 -10 3 -5 -1 -10 -9 -10 -10 0 -16 9 -17 23 0 12 -3 16 -6 10 -9 -23 -18
-14 -20 19 -2 18 -7 34 -13 36 -5 2 -10 22 -10 45 -1 34 -3 39 -11 24 -6 -9
-15 -15 -20 -11 -6 3 -7 -11 -2 -38 4 -24 7 -53 8 -65 0 -23 25 -34 25 -11 0
6 3 9 6 5 3 -3 -4 -21 -17 -39 -13 -18 -26 -53 -29 -78 -6 -53 -18 -56 -44
-10 -11 19 -16 31 -10 28 5 -3 9 5 9 18 0 14 -5 22 -12 20 -6 -3 -14 10 -18
30 -5 29 -9 34 -25 29 -16 -5 -18 -3 -13 11 4 11 3 15 -4 11 -13 -8 -23 14
-23 49 0 13 -5 24 -10 24 -6 0 -22 11 -36 25 -14 14 -29 25 -34 25 -6 0 -10 8
-10 17 0 13 -3 14 -11 6 -9 -9 -15 -8 -26 3 -8 8 -19 12 -24 9 -5 -4 -9 1 -9
10 0 9 -4 14 -9 11 -5 -3 -11 3 -14 14 -3 11 -9 19 -14 18 -4 -1 -18 3 -30 10
-18 10 -23 9 -31 -5 -8 -13 -2 -23 27 -45 20 -15 43 -33 51 -40 8 -7 15 -11
15 -8 0 3 27 -23 60 -56 33 -34 66 -59 73 -57 7 3 12 -4 12 -16 0 -11 9 -35
20 -53 11 -18 20 -28 20 -23 0 6 8 11 18 11 15 0 18 -8 16 -43 -2 -24 1 -43 7
-43 5 0 9 -7 9 -16 0 -13 -3 -14 -14 -5 -11 9 -15 9 -18 -1 -4 -10 -9 -9 -21
4 -9 9 -17 21 -17 26 0 6 -7 12 -15 16 -8 3 -15 13 -15 22 0 10 -5 14 -15 10
-10 -4 -15 1 -16 17 -1 18 -2 18 -6 4 -4 -14 -8 -16 -19 -6 -8 6 -14 19 -15
28 0 9 -3 11 -5 4 -7 -17 -44 22 -44 47 0 22 -15 27 -23 8 -4 -10 -6 -10 -6 0
-1 7 -5 10 -11 7 -6 -4 -7 1 -3 11 5 13 3 16 -10 11 -11 -4 -17 -1 -17 7 0 8
-7 16 -15 20 -8 3 -15 13 -15 22 0 10 -5 14 -15 10 -9 -3 -18 1 -21 9 -4 8
-12 15 -20 15 -7 0 -19 9 -27 20 -8 11 -17 17 -21 13 -3 -4 -22 9 -41 27 -19
19 -35 29 -35 22 0 -7 5 -12 10 -12 6 0 10 -5 10 -10 0 -7 -6 -7 -20 0 -11 6
-20 17 -20 25 0 7 -14 19 -30 27 -17 7 -33 21 -36 30 -3 10 -12 18 -20 18 -8
0 -14 9 -14 21 0 16 -4 19 -16 15 -10 -4 -25 1 -37 11 -19 17 -19 17 -12 -6 5
-16 4 -21 -4 -17 -6 4 -11 13 -11 20 0 13 -47 59 -65 64 -5 2 -9 10 -9 17 1 8
-3 12 -9 8 -5 -3 -16 2 -24 12 -11 17 -13 17 -13 2 0 -11 -5 -14 -16 -10 -9 3
-12 9 -7 12 4 3 9 15 11 26 2 14 0 16 -6 7 -6 -10 -15 -7 -36 13 -15 14 -31
25 -35 25 -5 0 -21 18 -36 40 -15 22 -30 38 -33 36 -2 -3 -13 3 -23 13 -26 24
-17 81 11 74 10 -3 21 -11 24 -19 3 -8 12 -14 20 -14 10 0 13 -6 9 -17 -4 -12
-3 -15 4 -8 6 6 14 21 18 35 4 17 3 21 -3 11 -6 -8 -12 -9 -16 -3 -3 6 -2 14
4 17 8 5 7 14 -3 29 -8 12 -13 33 -12 47 3 23 0 25 -30 24 -24 -2 -32 2 -31
14 0 9 5 19 11 23 5 4 2 10 -8 14 -9 3 -17 12 -17 20 0 8 -3 13 -7 12 -5 -1
-19 2 -31 6 -18 6 -23 14 -19 31 2 15 -1 26 -11 30 -9 3 -13 14 -10 30 6 28
-6 33 -20 9 -7 -13 -10 -10 -15 15 -4 18 -13 31 -22 31 -8 0 -15 6 -15 13 0 9
-2 9 -9 -1 -7 -11 -9 -11 -14 2 -4 9 -3 23 0 33 4 11 3 14 -5 9 -8 -4 -10 -2
-6 7 3 8 -2 17 -10 20 -9 4 -16 12 -16 18 0 12 56 -44 77 -77 11 -18 12 -18
12 4 l1 22 20 -20 c11 -11 27 -20 35 -20 8 0 15 -8 15 -19 0 -10 20 -39 45
-63 44 -44 45 -45 60 -24 14 20 15 20 9 -7 -5 -23 -3 -26 11 -21 10 4 21 1 26
-7 7 -11 9 -9 9 6 0 16 2 17 9 6 5 -8 7 -21 4 -29 -4 -8 1 -19 10 -24 10 -5
17 -18 17 -28 0 -11 6 -20 14 -20 17 0 31 18 21 28 -3 3 -10 0 -15 -8 -6 -8
-10 -10 -10 -4 0 6 7 17 15 24 12 10 17 8 27 -17 7 -16 18 -28 25 -26 6 2 19
-7 28 -21 9 -14 22 -23 29 -20 7 3 21 -10 31 -29 17 -33 42 -43 57 -22 4 6 8
2 8 -8 0 -14 4 -16 18 -8 21 11 41 -2 43 -29 0 -10 2 -11 6 -2 8 19 22 14 35
-13 8 -19 17 -24 38 -21 22 2 31 -2 40 -22 9 -21 13 -23 21 -11 7 12 9 12 10
-1 1 -8 1 -19 0 -24 -1 -5 5 -6 14 -3 9 4 15 1 15 -9 0 -10 8 -13 25 -10 15 3
25 0 25 -7 0 -7 4 -6 10 3 13 20 13 33 0 25 -6 -3 -13 1 -16 9 -3 9 -10 13
-15 10 -5 -3 -6 -11 -2 -17 3 -7 -3 -3 -15 7 -24 21 -29 30 -9 21 6 -4 -1 5
-18 19 -16 14 -35 26 -41 26 -6 0 -31 17 -54 38 -24 20 -46 37 -50 37 -3 0
-14 8 -23 17 -10 9 -26 19 -36 23 -11 3 -41 26 -67 50 -27 24 -51 42 -55 39
-4 -2 -10 3 -13 12 -3 8 -10 12 -16 9 -5 -3 -10 0 -10 8 0 8 -14 20 -30 27
-17 7 -35 21 -41 31 -5 11 -14 19 -19 19 -5 0 -51 41 -102 90 -50 50 -97 90
-102 90 -6 0 -22 14 -36 30 -14 17 -30 30 -36 30 -7 0 -15 8 -18 17 -6 14 -9
15 -15 4 -7 -11 -13 -8 -25 12 -15 22 -43 37 -81 42 -5 1 -18 5 -27 9 -9 4
-21 5 -27 2 -5 -4 -12 -2 -16 4 -3 5 -11 10 -16 10 -6 0 -7 -4 -4 -10 8 -13
-1 -13 -26 0 -16 9 -19 7 -19 -14 0 -18 -4 -24 -15 -20 -9 4 -15 0 -15 -10 0
-9 -5 -16 -11 -16 -5 0 -8 -4 -4 -9 3 -6 7 -44 9 -86 2 -41 9 -82 16 -90 10
-12 10 -15 -1 -15 -7 0 0 -13 16 -30 17 -18 23 -30 15 -30 -9 0 -5 -9 10 -25
13 -14 21 -28 17 -31 -8 -8 33 -85 49 -91 8 -3 14 -9 14 -15 0 -5 -5 -6 -12
-2 -6 4 0 -8 15 -28 15 -19 27 -38 27 -42 0 -4 12 -23 26 -42 15 -19 23 -34
18 -34 -4 0 2 -10 13 -22 21 -24 37 -57 35 -71 -1 -4 9 -13 23 -19 14 -6 25
-15 25 -20 0 -5 18 -26 40 -47 22 -21 40 -43 40 -49 0 -6 14 -18 30 -27 17 -9
30 -21 30 -28 0 -7 31 -34 69 -59 39 -25 67 -49 64 -52 -4 -3 3 -6 15 -6 12 0
22 -4 22 -8 0 -5 12 -15 28 -23 32 -16 150 -95 172 -114 8 -8 17 -13 20 -12 7
1 94 -57 98 -65 2 -5 8 -8 13 -8 5 0 31 -22 58 -50 27 -27 53 -50 56 -50 4 0
39 -25 78 -55 39 -30 76 -55 84 -55 7 0 13 -4 13 -10 0 -5 16 -12 35 -16 19
-3 35 -10 35 -14 0 -9 117 -71 128 -67 4 1 18 -8 32 -20 13 -13 28 -23 32 -23
5 0 6 -4 3 -10 -4 -6 1 -7 11 -3 11 4 15 3 10 -5 -4 -7 2 -9 20 -6 16 3 23 1
19 -6 -3 -5 -1 -10 4 -10 6 0 11 -9 11 -20 0 -10 8 -23 17 -29 14 -7 15 -12 5
-23 -6 -8 -9 -18 -5 -21 3 -4 11 0 17 7 6 8 22 17 36 21 22 7 23 6 11 -9 -7
-9 -20 -16 -27 -16 -8 0 -14 -4 -14 -9 0 -4 12 -6 28 -4 15 3 22 1 16 -4 -16
-11 1 -53 21 -53 20 0 19 -23 -3 -51 -13 -15 -21 -19 -26 -11 -4 8 0 12 11 13
16 0 16 1 -2 9 -26 11 -44 12 -27 1 8 -4 13 -11 13 -15 -3 -21 2 -26 25 -26
18 0 24 -4 21 -13 -3 -8 3 -20 14 -27 13 -10 15 -17 7 -27 -8 -10 -6 -13 8
-13 16 0 16 -2 4 -10 -22 -14 -7 -21 30 -14 29 6 31 9 16 19 -15 11 -15 13 -1
19 19 7 19 35 0 63 -9 12 -14 28 -13 35 2 7 -3 12 -9 10 -7 -1 -13 7 -13 17 0
11 -4 22 -10 26 -12 7 -2 33 22 57 19 19 48 24 48 8 0 -5 -6 -10 -14 -10 -17
0 27 -95 49 -104 19 -7 19 3 -1 25 -14 15 -14 20 -1 46 8 15 24 37 36 47 l21
19 0 -45 c0 -71 44 -106 125 -100 54 5 82 90 49 153 -15 29 -14 30 4 20 53
-28 65 -86 26 -128 -17 -19 -21 -29 -13 -32 7 -2 15 1 17 8 3 9 7 9 18 1 17
-15 29 -7 65 42 16 23 29 37 30 32 0 -5 4 0 8 11 5 13 19 20 44 22 35 2 48 -9
27 -22 -19 -12 0 -26 20 -15 31 16 35 11 12 -13 l-22 -24 21 -26 c19 -25 19
-27 2 -28 -12 0 -9 -4 10 -11 15 -5 27 -14 27 -19 0 -4 7 -6 15 -3 16 7 21
-11 6 -21 -5 -3 -8 -22 -6 -43 2 -20 1 -30 -2 -22 -9 22 -25 30 -46 24 -10 -3
-25 0 -33 7 -18 15 -31 4 -15 -14 9 -11 8 -17 -4 -27 -8 -7 -12 -16 -9 -21 3
-5 -4 -9 -15 -9 -12 0 -21 -4 -21 -10 0 -14 22 -12 43 4 14 11 15 15 5 19 -8
3 -8 6 -2 6 6 1 18 -6 25 -15 11 -14 10 -18 -6 -30 -19 -14 -15 -18 18 -15 30
4 19 -29 -15 -41 -30 -11 -30 -12 -10 -19 12 -5 22 -13 22 -19 0 -5 7 -10 15
-10 8 0 15 5 15 10 0 6 -4 10 -10 10 -5 0 -10 5 -10 11 0 6 9 8 23 4 17 -6 19
-5 10 5 -9 10 -7 17 8 33 l19 21 22 -22 c13 -12 18 -22 12 -22 -6 0 -10 -14
-9 -30 2 -26 -1 -30 -19 -25 -21 6 -21 6 -2 -9 23 -18 36 -20 36 -6 0 6 14 34
30 63 44 75 52 87 78 113 12 13 22 28 22 34 0 5 6 10 13 10 7 0 19 9 27 20 8
11 22 20 32 20 10 0 18 5 18 11 0 5 5 7 10 4 6 -4 23 1 38 11 32 22 86 49 127
64 29 11 29 12 11 26 -25 18 -36 18 -36 1 0 -8 -7 -14 -15 -14 -10 0 -12 5 -5
16 7 13 1 18 -33 28 l-42 11 40 1 c27 1 36 4 26 10 -11 7 -10 11 7 20 30 16
42 14 42 -10 0 -17 4 -19 23 -13 36 11 87 13 87 3 0 -6 9 -5 21 2 16 8 20 8
14 -1 -6 -9 -3 -9 12 -1 11 6 23 7 27 4 3 -3 6 -2 6 4 0 19 -46 48 -80 50 -77
4 -76 2 -103 83 -35 103 -59 300 -37 300 6 0 10 4 10 10 0 5 -7 6 -17 3 -11
-4 -14 -3 -9 5 4 7 1 12 -9 12 -9 0 -16 7 -14 18 4 40 -1 54 -17 48 -10 -4
-13 -2 -8 6 5 8 1 9 -11 4 -18 -7 -18 -6 0 14 22 25 14 36 -15 20 -20 -11 -21
-10 -15 12 7 20 6 21 -9 9 -14 -12 -16 -12 -10 4 6 14 3 16 -14 11 -15 -5 -22
-2 -27 14 -4 11 -11 18 -16 15 -12 -8 -12 8 0 20 9 9 60 152 66 185 7 40 16
100 21 145 8 77 11 97 24 140 6 22 13 56 16 75 3 19 9 39 14 45 6 7 7 15 3 19
-4 4 -3 10 3 14 13 8 64 113 64 130 0 7 4 12 10 12 5 0 7 6 4 13 -2 7 4 22 16
32 11 10 20 23 20 29 1 6 19 29 40 51 22 22 43 48 46 57 3 10 11 18 17 18 6 0
20 9 32 19 70 66 88 81 96 81 5 0 9 6 9 13 0 8 11 20 25 27 14 7 25 17 25 21
0 5 11 20 26 34 14 14 23 29 19 34 -3 5 -1 12 4 16 6 3 8 11 6 18 -2 7 -6 25
-9 40 -4 15 -10 25 -15 22 -5 -2 -11 2 -15 10 -3 8 -12 12 -21 9 -8 -3 -15 -1
-15 5 0 11 -73 14 -115 4z m-481 -572 c-3 -9 -7 -28 -9 -44 -5 -35 -13 -47
-30 -47 -11 0 -13 -8 -8 -30 4 -22 2 -30 -8 -30 -11 0 -11 -2 -1 -8 9 -6 5
-19 -18 -53 -30 -44 -42 -79 -15 -43 8 10 15 15 15 10 0 -15 -23 -91 -32 -103
-6 -7 -4 -14 3 -19 8 -4 9 -3 5 4 -4 7 -1 12 8 12 21 0 20 -2 -10 -65 -14 -30
-27 -77 -29 -105 -3 -46 -2 -50 13 -38 11 9 14 10 8 1 -9 -16 6 -17 22 -1 17
17 15 31 -3 24 -8 -3 -15 -3 -15 0 0 2 12 9 27 15 19 7 23 13 15 18 -10 6 -8
13 6 32 11 13 25 49 32 79 7 30 21 61 31 68 13 9 17 21 13 41 -4 17 -1 33 8
42 8 8 20 29 26 48 7 18 23 45 37 59 14 13 25 34 25 46 0 12 9 28 20 36 14 10
17 17 8 27 -8 10 -5 13 15 13 31 0 45 17 20 23 -14 4 -13 5 5 6 13 1 22 -5 22
-14 0 -8 -5 -15 -11 -15 -5 0 -7 -5 -3 -12 4 -7 3 -8 -4 -4 -7 4 -12 1 -12 -8
0 -9 6 -16 13 -17 10 0 10 -2 0 -6 -7 -2 -13 -16 -13 -29 0 -17 4 -23 13 -18
10 6 10 4 0 -7 -7 -7 -13 -21 -13 -32 0 -10 -4 -15 -10 -12 -6 3 -7 -1 -4 -9
4 -10 1 -16 -7 -16 -11 0 -11 -2 -1 -8 9 -7 8 -13 -8 -27 -23 -21 -27 -47 -5
-39 13 5 13 3 0 -22 -11 -21 -11 -30 -3 -36 9 -5 8 -12 -5 -26 -20 -22 -23
-47 -4 -36 7 5 6 0 -3 -10 -8 -10 -15 -24 -15 -30 -1 -15 -21 -56 -41 -84 -17
-22 -16 -22 9 -13 l26 10 -21 -35 c-11 -19 -24 -37 -29 -40 -5 -3 -9 -14 -9
-25 0 -11 -7 -19 -17 -19 -9 0 -13 -3 -10 -6 4 -4 -8 -23 -25 -43 -22 -25 -40
-36 -60 -36 -23 -1 -28 3 -26 20 1 11 -1 25 -5 32 -4 6 -3 14 3 18 5 3 10 11
10 17 0 6 -3 8 -7 4 -4 -3 -12 2 -18 14 -10 19 -12 19 -34 4 -12 -9 -20 -22
-17 -30 3 -8 1 -14 -4 -14 -4 0 -11 -13 -15 -29 -5 -25 -11 -29 -33 -28 -22 2
-27 8 -27 29 1 15 -3 24 -8 21 -16 -9 -34 29 -30 66 2 20 4 58 5 86 2 41 7 55
33 78 17 16 23 25 12 21 -17 -6 -17 -4 2 29 12 21 16 38 10 44 -6 6 -2 18 11
33 11 13 20 29 20 37 0 7 11 31 25 54 14 22 23 44 20 48 -2 5 2 11 10 15 8 3
15 12 15 21 0 8 4 15 10 15 5 0 7 7 4 15 -4 8 -1 15 5 15 6 0 10 3 10 8 -4 25
3 42 19 42 14 0 15 2 2 10 -11 7 -11 10 -2 10 7 0 11 4 8 9 -3 5 10 9 29 8 28
-1 34 -4 29 -16z m-220 -1166 c-3 -19 -1 -35 5 -39 14 -9 15 -46 1 -46 -5 0
-10 -4 -10 -9 0 -6 8 -10 18 -10 70 -1 72 -2 71 -35 -2 -30 -2 -30 -6 -3 -6
38 -23 24 -24 -21 0 -20 -3 -31 -6 -24 -6 14 -33 16 -33 2 0 -5 -11 -12 -25
-16 -14 -3 -25 -10 -25 -15 0 -5 -5 -9 -11 -9 -6 0 -9 9 -6 20 4 15 0 20 -14
20 -10 0 -19 4 -19 10 0 5 7 7 15 4 22 -9 18 4 -10 38 -14 16 -25 39 -25 51 0
18 4 15 26 -16 30 -45 39 -44 23 2 -6 17 -8 38 -5 47 5 12 2 15 -9 10 -9 -3
-13 -2 -10 4 3 6 0 13 -9 16 -8 3 -17 12 -20 19 -3 9 0 12 9 8 12 -4 14 2 8
27 -4 24 -3 31 5 26 7 -4 12 -16 12 -27 0 -10 5 -19 10 -19 6 0 10 -7 10 -15
0 -8 4 -15 8 -15 5 0 13 -12 19 -27 l12 -28 -6 30 c-3 17 -12 40 -19 52 -18
29 -18 37 2 29 11 -4 18 1 22 16 l5 22 9 -24 c5 -12 6 -37 2 -55z"/>
<path d="M3407 7727 c-4 -11 0 -21 13 -29 11 -7 20 -23 20 -35 0 -23 20 -44
20 -21 1 8 9 4 19 -9 11 -13 24 -23 29 -23 5 0 12 -10 15 -22 4 -12 10 -19 14
-14 4 4 15 -10 25 -31 14 -33 17 -35 17 -13 l1 25 24 -28 c15 -17 23 -37 21
-49 -4 -17 -2 -19 7 -10 19 19 27 14 20 -10 -5 -21 -4 -22 13 -8 17 14 18 13
12 -3 -6 -15 -4 -16 13 -7 11 6 20 13 20 16 0 13 -46 84 -55 84 -5 0 -26 15
-46 33 -20 18 -41 31 -47 29 -7 -2 -12 3 -12 12 0 9 -5 16 -10 16 -6 0 -24 16
-41 35 -17 19 -39 35 -49 35 -9 0 -21 10 -27 22 -8 19 -10 20 -16 5z"/>
<path d="M5371 6644 c6 -8 8 -14 3 -14 -5 0 -20 -9 -33 -19 l-24 -18 46 -46
c28 -28 50 -60 56 -85 11 -39 7 -72 -9 -72 -13 0 -19 -39 -6 -45 8 -3 8 -7 -1
-11 -15 -6 -18 -44 -4 -44 14 0 21 -54 8 -62 -8 -5 -9 -11 -2 -15 6 -5 9 -17
9 -28 -1 -11 -2 -31 -3 -44 -1 -17 -5 -22 -17 -17 -11 4 -18 -1 -21 -14 -6
-23 -8 -23 -33 -10 -13 7 -19 6 -24 -5 -3 -9 -12 -12 -21 -9 -13 5 -15 1 -9
-22 5 -24 4 -27 -7 -16 -17 16 -29 15 -29 -2 0 -8 -9 -18 -20 -21 -13 -4 -20
-15 -20 -31 0 -14 -4 -23 -9 -20 -5 3 -11 -1 -15 -9 -3 -8 -1 -15 5 -15 5 0 7
-10 4 -23 -4 -15 -1 -28 9 -36 9 -7 14 -17 11 -21 -2 -4 0 -21 5 -39 7 -24 6
-31 -6 -31 -8 0 -14 -4 -14 -9 0 -5 -8 -8 -17 -7 -10 0 -18 -4 -18 -11 0 -18
-56 -65 -71 -59 -8 3 -14 -1 -14 -9 0 -8 -7 -15 -15 -15 -9 0 -21 -12 -27 -26
-8 -18 -17 -24 -30 -20 -16 4 -17 2 -7 -10 9 -11 8 -14 -5 -14 -9 0 -19 -7
-22 -15 -4 -10 -10 -12 -18 -6 -14 12 -90 -21 -79 -34 5 -4 2 -5 -5 -1 -7 4
-21 4 -30 0 -25 -11 -73 -13 -66 -3 3 5 0 9 -5 9 -6 0 -11 -7 -11 -16 0 -8 -4
-13 -9 -9 -19 11 -23 -17 -5 -30 31 -23 2 -17 -35 8 -19 12 -42 27 -50 32 -9
6 -34 26 -55 45 -44 41 -59 50 -106 67 -48 17 -60 16 -60 -5 0 -12 16 -26 49
-40 44 -21 115 -83 158 -140 52 -69 65 -81 83 -77 11 2 19 0 17 -4 -4 -16 198
-232 252 -270 19 -13 49 -38 66 -55 18 -17 56 -47 85 -66 28 -19 57 -40 64
-46 6 -6 30 -17 51 -25 22 -8 43 -18 46 -22 3 -4 10 -7 16 -5 14 4 73 -43 73
-58 0 -8 6 -14 14 -14 8 0 22 -7 30 -16 15 -14 17 -14 23 1 5 15 8 14 19 -6
15 -29 22 -30 35 -6 9 16 14 14 50 -15 22 -18 37 -38 35 -45 -3 -7 -1 -13 5
-13 5 0 9 -6 7 -14 -2 -8 2 -15 7 -15 6 0 10 13 10 29 0 26 1 27 16 14 12 -10
19 -12 24 -5 3 6 0 11 -7 11 -9 1 -7 5 4 14 10 7 15 16 11 19 -3 4 0 7 7 7 7
0 10 3 7 7 -4 3 2 12 12 19 25 18 56 83 52 112 -1 12 3 22 9 22 7 0 8 6 1 18
-6 12 -5 23 5 36 9 14 11 23 3 32 -6 8 -6 14 0 18 5 3 8 17 6 31 -1 14 3 25 9
25 7 0 7 3 1 8 -5 4 -11 43 -12 87 -2 46 -12 110 -24 150 -11 39 -23 82 -26
98 -3 15 -10 27 -15 27 -5 0 -6 -9 -1 -22 19 -55 6 -91 -47 -139 -43 -38 -51
-51 -46 -70 6 -23 6 -23 -6 1 -7 14 -21 32 -31 40 -14 12 -19 34 -22 103 -3
82 -2 88 19 102 38 25 84 30 105 11 27 -24 33 -6 16 44 -8 23 -15 44 -15 45 0
1 18 14 40 29 83 54 87 110 26 324 -20 69 -36 145 -36 174 0 29 0 60 0 68 0
41 -8 81 -20 95 -9 11 -9 15 -1 15 9 0 8 6 -1 23 -7 12 -11 26 -10 31 5 17
-10 46 -24 46 -12 0 -19 18 -15 42 0 4 -13 15 -29 23 -16 8 -29 19 -28 23 7
30 -97 122 -138 122 -9 0 -12 5 -8 11 5 9 -1 10 -21 5 -24 -6 -27 -5 -17 7 10
11 6 14 -19 15 -25 1 -28 -2 -18 -14z m162 -1233 c35 -70 35 -105 -1 -139 -18
-18 -26 -35 -24 -50 2 -13 0 -31 -4 -40 -4 -9 -6 -22 -5 -29 1 -6 -7 -14 -16
-17 -10 -3 -23 -16 -28 -28 -13 -29 -51 -35 -77 -11 -12 10 -34 45 -50 78 -27
57 -28 58 -24 23 4 -36 -11 -68 -33 -68 -11 0 -45 40 -66 77 -15 26 -21 29
-35 21 -34 -22 -70 17 -70 74 0 12 -15 34 -32 49 l-33 27 27 0 c15 0 29 -7 33
-16 5 -13 8 -12 18 8 9 17 22 26 44 28 34 3 36 0 48 -75 4 -24 10 -43 15 -43
19 0 31 30 25 63 -7 34 16 98 33 96 4 -1 9 0 12 1 14 7 159 28 185 26 26 -1
34 -9 58 -55z"/>
<path d="M4824 6205 c-8 -32 3 -95 17 -95 6 0 8 -9 4 -20 -9 -28 37 -46 121
-49 50 -2 64 1 64 12 0 24 -37 64 -72 77 -79 30 -88 36 -99 63 -16 38 -27 42
-35 12z"/>
<path d="M4335 5278 c-4 -23 -16 -54 -27 -69 -11 -15 -18 -33 -15 -41 4 -9 6
-7 6 5 1 27 21 21 94 -29 108 -72 179 -97 199 -69 4 6 8 2 8 -8 0 -14 4 -16
19 -8 10 6 21 8 24 4 4 -3 1 5 -5 19 -9 19 -18 23 -36 20 -25 -5 -25 -5 -19
59 l5 64 -13 -63 c-7 -35 -18 -69 -25 -75 -10 -10 -10 -8 -1 10 7 14 8 24 1
28 -6 3 -8 25 -5 48 4 36 3 34 -9 -13 -13 -51 -14 -53 -15 -19 -1 24 -7 39
-17 43 -12 4 -14 14 -9 36 4 18 2 30 -3 30 -25 0 -42 -14 -42 -33 0 -15 -3
-18 -11 -10 -17 17 -49 3 -49 -20 0 -20 -1 -20 -17 3 -11 16 -17 44 -17 77 0
64 -11 69 -21 11z"/>
<path d="M4230 4912 c0 -7 -9 -12 -20 -12 -12 0 -20 -7 -20 -16 0 -11 -6 -15
-20 -11 -23 6 -27 -11 -5 -19 8 -4 12 -10 9 -15 -3 -5 -9 -7 -13 -4 -5 2 -19
-7 -32 -22 -20 -22 -21 -25 -5 -19 16 6 17 4 6 -9 -8 -10 -16 -12 -19 -6 -5 8
-16 9 -50 2 -2 -1 2 -7 8 -14 6 -8 8 -17 4 -21 -4 -4 0 -4 10 0 21 8 22 -2 2
-22 -8 -9 -15 -21 -15 -27 0 -8 4 -7 9 2 8 12 11 12 25 -1 14 -14 12 -16 -17
-14 -18 0 -35 8 -39 16 -5 10 -7 7 -6 -10 1 -14 0 -40 0 -58 -2 -30 -4 -33
-24 -26 -20 6 -21 5 -10 -9 9 -10 10 -17 2 -22 -6 -3 -8 -11 -4 -16 3 -5 -10
-16 -28 -24 l-33 -14 32 -11 c18 -7 30 -17 27 -22 -4 -6 0 -15 7 -20 10 -7 9
-8 -6 -4 -11 3 -26 1 -34 -3 -11 -7 -6 -12 20 -19 19 -6 26 -11 14 -11 -22 -1
-10 -16 20 -24 11 -3 -2 -4 -30 -1 l-50 5 45 -16 c25 -9 55 -21 67 -27 29 -14
42 -4 15 11 -14 7 -18 17 -15 31 4 14 0 20 -11 20 -9 0 -16 7 -16 15 0 10 10
15 27 15 l27 0 -27 28 -26 27 62 -4 62 -3 -19 21 c-11 12 -29 21 -40 20 -37
-2 -41 1 -16 16 19 10 28 11 39 2 11 -9 15 -9 18 1 3 6 11 12 20 12 16 0 43
23 43 38 0 5 -10 14 -22 21 -13 6 -16 10 -6 7 24 -7 48 26 48 67 0 20 5 37 11
37 6 0 8 7 5 16 -3 8 -2 13 2 10 4 -3 9 14 10 37 1 23 2 53 3 66 1 12 -4 28
-10 34 -8 8 -11 8 -11 -1z"/>
<path d="M3930 4750 c0 -5 -7 -7 -15 -4 -8 4 -15 2 -15 -3 0 -6 -28 -11 -62
-12 -68 -3 -113 -7 -113 -11 0 -1 -9 -4 -20 -6 -11 -2 -40 -8 -65 -14 -43 -11
-93 -16 -173 -19 -24 -1 -36 -5 -32 -11 4 -7 -3 -9 -22 -5 -21 5 -24 4 -13 -4
12 -9 11 -11 -8 -11 -12 0 -45 -11 -74 -25 -28 -14 -60 -25 -71 -25 -12 0 -17
-5 -14 -14 4 -9 -3 -16 -19 -20 -13 -4 -24 -11 -24 -17 0 -6 -4 -7 -10 -4 -11
7 -92 -74 -85 -85 3 -4 -8 -13 -23 -19 -25 -11 -62 -72 -63 -106 -1 -5 -4 -14
-9 -20 -12 -15 -50 -85 -50 -92 0 -3 6 0 14 6 11 9 15 9 19 -1 3 -7 6 -2 6 11
1 33 10 22 15 -17 2 -17 -1 -29 -5 -26 -5 3 -23 -8 -39 -25 -19 -19 -30 -24
-30 -15 0 8 7 17 15 20 8 4 15 12 15 20 0 25 -17 15 -39 -22 -12 -19 -17 -33
-12 -29 5 3 12 1 16 -5 3 -5 -5 -15 -19 -22 -29 -13 -34 -33 -10 -42 23 -9 31
-7 14 4 -21 13 -9 20 38 22 23 1 42 5 42 10 0 4 6 8 13 8 6 0 12 -13 13 -29 1
-22 -4 -31 -20 -35 -16 -5 -18 -8 -7 -15 10 -7 11 -13 2 -30 -7 -11 -16 -21
-21 -21 -6 0 -10 -7 -10 -17 0 -14 2 -14 20 2 11 10 20 13 20 7 0 -6 -4 -14
-10 -17 -15 -10 -12 -35 5 -35 16 0 20 -12 8 -24 -5 -4 -8 -11 -9 -14 0 -4 -4
-14 -7 -22 -4 -8 -8 -26 -9 -40 -2 -14 -7 -28 -13 -32 -6 -5 -4 -8 4 -8 11 0
8 -6 -7 -20 -12 -12 -22 -27 -22 -34 0 -8 -7 -16 -15 -20 -21 -8 -19 -27 3
-20 15 5 15 4 1 -8 -9 -7 -14 -20 -12 -28 3 -10 -1 -8 -11 4 -9 11 -19 16 -23
11 -5 -4 -2 -10 5 -12 6 -3 12 -11 12 -20 0 -11 7 -13 28 -9 15 3 34 2 42 -4
12 -8 9 -10 -12 -10 -16 0 -28 -4 -28 -10 0 -5 7 -10 15 -10 8 0 15 -4 15 -9
0 -5 -6 -9 -12 -8 -7 0 -22 -1 -33 -2 -19 -2 -19 -3 -1 -10 17 -7 17 -8 2 -24
-19 -18 -41 -23 -31 -7 4 6 -3 6 -17 -1 -13 -6 -30 -20 -37 -32 -13 -21 -13
-21 5 -6 21 18 94 35 94 21 0 -4 -17 -14 -37 -22 -37 -13 -37 -14 -13 -21 14
-4 20 -7 15 -8 -6 -1 -22 -12 -36 -25 -39 -36 -69 -50 -69 -32 0 7 7 16 15 20
8 3 15 12 15 20 0 8 6 16 12 18 7 3 2 7 -11 11 -13 3 -20 3 -17 0 3 -3 -3 -22
-14 -43 -19 -37 -19 -37 0 -46 18 -8 19 -11 6 -36 -12 -22 -12 -27 -1 -32 8
-3 12 0 9 7 -6 18 35 42 49 28 8 -8 6 -11 -5 -11 -9 0 -20 -5 -24 -11 -4 -7 2
-9 14 -7 32 5 30 -15 -2 -31 -22 -10 -31 -11 -34 -3 -2 7 -8 12 -14 12 -6 0
-6 -6 2 -15 10 -12 9 -15 -6 -15 -16 0 -17 -2 -4 -10 8 -5 16 -6 18 -2 1 5 18
6 37 4 24 -3 35 0 35 9 0 7 3 10 6 7 7 -8 -25 -58 -38 -58 -5 0 -7 4 -3 9 3 5
1 12 -4 15 -10 7 -24 -22 -16 -34 3 -4 -2 -10 -10 -14 -27 -10 -16 -25 16 -21
27 4 29 2 18 -11 -7 -8 -18 -13 -25 -10 -8 3 -11 0 -8 -8 3 -7 -3 -21 -12 -31
-17 -17 -17 -17 4 -11 16 6 22 3 22 -8 0 -21 4 -20 36 9 47 44 38 18 -15 -43
-65 -74 -67 -93 -3 -24 27 29 52 52 56 52 4 0 2 -6 -4 -12 -47 -56 -50 -62
-39 -69 9 -5 3 -19 -19 -47 -37 -46 -38 -52 -15 -52 9 0 14 -2 11 -5 -3 -4
-18 -3 -33 1 -23 6 -25 8 -11 16 9 5 16 21 15 36 0 16 -3 21 -6 12 -3 -8 -12
-19 -19 -23 -26 -15 -16 -44 16 -50 27 -6 43 -27 20 -27 -5 0 -7 -7 -4 -15 4
-10 0 -15 -14 -15 -23 0 -38 -16 -21 -22 7 -2 -2 -18 -20 -36 -29 -28 -31 -34
-19 -54 7 -13 11 -26 10 -30 -1 -5 2 -8 6 -8 19 0 8 -44 -16 -66 -15 -13 -22
-23 -17 -24 17 0 75 39 76 52 1 7 4 2 8 -12 4 -14 3 -31 -2 -37 -8 -12 -3 -17
14 -15 15 2 15 -36 2 -54 -15 -19 -15 -18 -9 2 7 22 -18 64 -30 51 -5 -4 -2
-12 6 -17 8 -5 11 -12 7 -17 -5 -4 -12 -1 -16 6 -7 11 -14 10 -35 -5 -27 -21
-29 -41 -2 -36 19 3 22 -14 4 -21 -10 -4 -9 -8 2 -16 24 -17 2 -13 -25 5 -15
10 -25 12 -25 5 0 -6 7 -11 15 -11 17 0 17 -5 6 -35 -5 -11 -13 -21 -20 -21
-6 -1 -15 -2 -21 -3 -25 -3 -7 -18 20 -16 17 1 30 -2 30 -7 0 -4 -8 -8 -17 -8
-10 0 -29 -12 -42 -25 -12 -14 -28 -22 -35 -18 -7 4 -6 1 2 -9 15 -19 5 -51
-15 -44 -7 3 -13 0 -12 -7 1 -6 1 -23 0 -37 -1 -20 -3 -22 -11 -10 -12 19 -13
8 -1 -24 7 -18 6 -28 -5 -36 -16 -14 -20 -45 -4 -35 21 13 9 -13 -15 -31 -24
-18 -24 -19 -4 -26 13 -5 17 -12 12 -20 -11 -18 -11 -118 0 -111 5 3 4 -4 -3
-16 -7 -14 -8 -27 -2 -34 4 -7 7 -24 6 -39 -2 -21 2 -28 14 -28 15 0 15 -2 2
-10 -13 -9 -13 -11 0 -20 11 -7 11 -10 2 -10 -10 0 -10 -5 -2 -20 6 -11 8 -26
4 -32 -5 -7 -3 -8 6 -3 10 6 12 4 7 -7 -3 -9 -3 -19 1 -22 10 -11 11 -36 0
-36 -5 0 -6 -10 -2 -22 11 -33 5 -101 -9 -110 -9 -6 -8 -11 3 -18 8 -5 10 -10
4 -10 -10 0 -22 -45 -28 -110 -1 -14 2 -34 7 -44 7 -15 6 -18 -5 -13 -9 3 -14
-1 -13 -12 1 -22 15 -42 24 -37 3 3 7 -3 7 -12 0 -9 4 -28 8 -41 5 -15 5 -21
-2 -17 -6 3 -3 -8 6 -26 25 -50 17 -88 -25 -126 -33 -29 -35 -33 -20 -45 15
-11 15 -15 -4 -56 -22 -49 -28 -126 -11 -143 27 -27 427 -27 454 0 8 8 -15
143 -31 185 -9 22 -8 31 3 42 7 8 16 11 20 8 3 -4 6 -2 6 3 0 13 -50 59 -70
66 -30 11 -49 105 -50 248 -1 74 -1 176 -2 225 -1 80 5 169 18 260 5 38 8 50
35 155 12 47 23 102 25 123 2 21 10 52 18 70 19 42 31 80 28 91 -2 4 1 13 7
20 5 6 14 45 21 86 12 74 36 134 63 162 8 8 22 30 32 48 9 19 28 49 41 67 l24
32 -29 48 c-18 31 -38 90 -56 168 -15 66 -34 146 -42 177 -12 43 -14 82 -10
155 6 92 9 117 22 203 3 19 8 52 11 73 3 21 12 61 20 90 8 29 20 72 25 97 9
40 23 77 50 132 5 10 9 23 9 30 0 7 10 24 23 38 13 14 22 31 19 38 -2 6 2 12
8 12 6 0 10 5 8 12 -3 7 7 25 21 41 19 22 31 27 51 22 15 -3 20 -2 12 3 -9 6
1 18 34 42 41 29 45 35 28 41 -20 8 -18 9 36 13 8 1 14 8 13 16 -2 12 61 65
69 58 6 -3 48 23 47 30 -4 24 3 33 24 30 16 -2 22 2 22 17 0 12 8 21 20 24 11
2 22 6 25 10 19 24 41 33 55 21 16 -13 59 -4 50 11 -4 5 -15 9 -26 9 -10 0
-19 5 -19 11 0 6 17 9 43 8 34 -2 49 2 67 19 13 12 29 22 35 22 14 0 85 95 85
114 0 7 7 19 15 26 8 7 15 18 15 25 0 19 40 66 51 60 5 -4 9 -1 9 4 0 6 -5 11
-12 11 -6 0 -4 8 6 19 17 19 17 19 -3 14 -11 -3 -34 2 -52 11 -38 19 -39 19
-39 6z"/>
<path d="M5141 4739 c-1 -3 13 -39 29 -80 17 -40 29 -80 27 -89 -3 -8 -8 -1
-12 17 -4 18 -11 30 -16 27 -5 -3 -13 6 -19 20 -5 14 -11 26 -13 26 -9 0 14
-123 28 -150 8 -16 15 -42 14 -57 0 -16 -3 -22 -6 -13 -4 8 -13 21 -22 28 -9
8 -11 11 -4 7 9 -4 10 1 2 25 -13 37 -22 40 -13 4 5 -20 4 -25 -5 -20 -15 9
-3 -46 12 -55 5 -4 6 -17 2 -30 -5 -19 -4 -21 4 -9 9 13 11 13 11 -2 0 -9 -5
-20 -11 -23 -6 -4 -8 -13 -5 -21 9 -24 -1 -16 -23 19 -20 31 -30 23 -12 -11 4
-9 11 -44 15 -77 l7 -60 -27 38 c-30 44 -41 42 -25 -4 6 -18 11 -44 10 -58 0
-23 -1 -24 -8 -6 -7 16 -10 11 -14 -25 -3 -25 -5 -63 -5 -85 1 -26 -3 -39 -11
-37 -8 1 -7 -7 4 -27 8 -17 15 -43 15 -60 0 -16 4 -31 8 -33 11 -4 52 -76 52
-90 0 -7 -8 -3 -19 8 -10 10 -30 29 -45 41 -43 38 -31 0 17 -48 23 -23 37 -40
30 -36 -6 4 -18 1 -26 -7 -8 -8 -18 -12 -22 -8 -8 7 -1 -31 12 -64 4 -12 3
-15 -5 -10 -7 4 -12 3 -12 -3 0 -5 4 -12 9 -15 9 -6 22 -46 15 -46 -9 0 -34
61 -29 70 7 11 -25 70 -37 70 -5 0 -1 -11 8 -25 9 -14 14 -28 11 -32 -4 -3 0
-21 8 -40 15 -35 12 -58 -6 -47 -5 3 -7 9 -4 13 2 5 -2 16 -9 27 -13 17 -13
16 -11 -8 2 -14 10 -37 19 -51 10 -14 15 -36 12 -50 -2 -14 4 -41 13 -61 17
-33 17 -34 -1 -23 -10 7 -18 17 -18 24 0 7 -9 13 -20 13 -24 0 -25 -6 -5 -26
8 -9 15 -23 15 -33 0 -10 9 -26 19 -35 11 -10 25 -40 32 -67 10 -38 17 -48 28
-44 13 5 13 4 4 -6 -10 -10 -15 -9 -28 1 -22 18 -19 3 7 -33 l22 -32 -37 28
c-20 15 -37 23 -37 18 0 -6 9 -15 20 -21 11 -6 25 -20 31 -33 11 -20 9 -19
-24 6 -39 29 -51 23 -17 -8 21 -19 28 -41 9 -29 -8 4 -8 0 0 -15 17 -30 4 -26
-32 12 l-30 32 28 -49 c16 -27 23 -46 15 -41 -10 6 -12 4 -7 -8 10 -27 -5 -20
-40 20 -18 20 -33 34 -33 30 0 -3 14 -22 30 -41 19 -21 28 -40 24 -50 -3 -9
-10 -13 -15 -10 -5 3 -9 -2 -9 -10 0 -8 4 -17 9 -20 5 -3 11 -17 13 -31 4 -20
3 -23 -8 -14 -8 6 -23 27 -35 46 -32 51 -36 31 -4 -22 24 -41 24 -45 7 -36
-18 9 -19 8 -15 -12 5 -22 5 -22 -10 -2 -9 11 -17 15 -17 9 0 -11 30 -54 57
-82 7 -7 13 -21 13 -30 0 -13 -2 -13 -14 3 -12 17 -14 15 -21 -26 -6 -35 -9
-40 -16 -24 -11 29 -11 47 1 40 12 -8 13 5 1 24 -7 11 -11 4 -17 -24 l-7 -39
-19 24 -19 23 6 -44 6 -44 -20 35 c-20 35 -30 35 -11 0 11 -20 22 -170 13
-170 -3 0 -12 8 -19 18 -13 16 -14 16 -7 -3 6 -20 6 -20 -15 -1 l-22 19 -1
-49 -1 -49 -12 53 c-6 30 -14 51 -18 47 -4 -4 -5 -12 -3 -18 10 -32 13 -94 5
-107 -8 -12 -10 -12 -10 3 0 10 -4 16 -9 13 -5 -4 -12 0 -15 6 -3 7 -3 -6 0
-28 3 -25 1 -45 -5 -48 -7 -5 -8 -1 -4 11 6 16 5 16 -10 4 -9 -7 -24 -11 -32
-7 -9 3 -14 2 -11 -3 3 -5 -2 -12 -12 -16 -30 -14 -52 -15 -52 -4 0 8 -4 8
-12 2 -7 -6 -48 -9 -90 -8 -43 1 -78 -1 -78 -5 0 -13 -26 -5 -44 13 -23 22
-29 22 -21 -3 6 -18 2 -19 -34 -17 -23 1 -41 6 -41 10 0 5 -5 5 -10 2 -12 -7
-40 18 -40 36 0 8 -4 9 -13 1 -10 -8 -17 -6 -27 7 -7 11 -19 17 -26 14 -8 -3
-28 9 -45 26 -17 17 -35 31 -41 31 -6 0 -8 10 -5 21 3 12 0 31 -8 43 -7 11
-17 47 -20 79 -7 55 -6 59 15 64 18 5 21 11 17 33 -5 24 8 79 25 106 4 5 5 19
4 30 -2 10 3 29 11 42 7 12 11 28 7 34 -4 6 -3 9 2 6 5 -3 18 6 28 21 20 26
20 26 0 8 -24 -20 -38 -12 -24 13 7 13 5 27 -5 47 -8 15 -15 21 -15 13 0 -12
-2 -13 -9 -1 -7 11 -10 9 -16 -8 -3 -11 -10 -21 -15 -21 -4 0 -11 -16 -14 -35
-4 -19 -22 -54 -40 -78 -30 -40 -33 -49 -29 -98 3 -40 2 -50 -6 -39 -6 8 -11
24 -12 35 -1 16 -2 16 -8 -5 -5 -14 -6 -40 -3 -57 6 -45 -3 -41 -29 10 -13 25
-24 36 -27 28 -2 -7 0 -16 5 -20 12 -7 22 -36 27 -77 3 -16 7 -37 11 -46 4
-11 3 -18 -4 -18 -6 0 -11 6 -12 13 -1 25 -18 -29 -18 -62 -1 -29 -3 -32 -16
-21 -13 10 -15 9 -15 -9 0 -11 5 -21 10 -21 6 0 10 -12 10 -26 0 -41 -28 -11
-33 34 -3 34 -4 33 -5 -10 -1 -25 2 -48 8 -50 13 -4 -5 -129 -21 -138 -8 -6
-6 -15 6 -34 17 -25 16 -26 -5 -34 -19 -7 -20 -9 -6 -21 21 -18 20 -32 -1 -24
-15 5 -15 2 3 -18 25 -29 56 -90 49 -97 -3 -3 -5 -1 -5 5 0 18 -28 10 -34 -9
-3 -14 0 -18 9 -14 11 4 13 -2 8 -26 -4 -18 -2 -29 3 -25 5 3 14 -10 20 -28 7
-21 7 -33 1 -32 -5 1 -12 -4 -15 -12 -2 -8 0 -11 5 -8 5 3 9 -3 9 -13 0 -10
-5 -16 -10 -13 -5 4 -7 -1 -3 -10 4 -11 -1 -20 -14 -28 -16 -8 -18 -13 -8 -25
6 -8 8 -14 4 -14 -5 0 0 -9 10 -20 10 -11 15 -26 11 -36 -4 -10 1 -25 11 -37
17 -19 17 -20 1 -14 -27 10 -21 -9 9 -28 l27 -18 -22 -18 c-21 -17 -14 -38 8
-24 6 3 10 1 10 -4 0 -6 -5 -11 -11 -11 -5 0 -7 -5 -4 -10 4 -6 11 -8 16 -5
13 8 11 -9 -2 -22 -8 -8 -5 -17 10 -32 22 -22 27 -41 11 -41 -6 0 -6 -9 -1
-22 5 -13 13 -23 19 -23 6 0 14 -4 19 -9 4 -5 3 -6 -3 -3 -7 4 -14 0 -18 -8
-3 -9 -12 -12 -23 -8 -15 6 -16 5 -3 -9 13 -14 16 -14 26 0 8 11 13 12 18 4 4
-7 3 -12 -3 -12 -13 0 -8 -22 12 -53 21 -32 21 -38 2 -31 -11 5 -13 2 -9 -10
3 -9 10 -16 15 -16 5 0 9 -10 10 -22 0 -23 0 -23 10 1 5 14 8 30 5 37 -3 7 -1
26 3 42 6 18 4 42 -4 65 -7 20 -9 37 -5 37 8 0 -1 41 -26 121 -28 87 -32 172
-22 472 3 91 5 100 28 117 14 11 30 20 37 20 6 0 29 21 51 46 36 42 42 46 68
38 16 -4 53 -7 82 -6 46 2 52 0 52 -18 0 -11 4 -20 9 -20 5 0 16 -3 24 -6 10
-3 18 2 21 14 5 14 13 18 26 15 11 -3 27 0 35 7 8 7 15 8 15 3 0 -11 42 -9 59
2 6 3 11 0 11 -7 1 -8 6 -6 15 6 7 10 18 15 23 12 5 -3 28 4 51 15 24 11 69
21 104 23 34 2 80 11 102 20 22 10 52 18 68 18 15 1 27 5 27 10 0 5 5 6 11 2
6 -3 14 -2 18 4 4 7 17 13 29 15 12 2 31 13 42 25 11 12 34 29 50 37 17 9 30
20 30 26 0 6 6 9 13 6 6 -2 31 16 55 40 32 33 47 43 62 38 11 -4 20 -15 20
-25 0 -10 9 -35 21 -54 11 -20 22 -46 25 -58 2 -13 8 -49 14 -82 8 -42 8 -68
-1 -93 -14 -45 -4 -87 19 -78 9 4 29 8 44 10 15 2 37 9 48 15 12 6 41 13 66
16 34 3 44 1 44 -11 0 -8 5 -15 10 -15 21 0 53 -39 46 -55 -3 -9 -1 -25 4 -36
7 -11 7 -19 1 -19 -5 0 -11 4 -13 9 -2 6 -10 4 -19 -2 -18 -14 -33 -87 -17
-87 6 0 7 -8 3 -17 -4 -10 -8 -30 -10 -46 -2 -15 -7 -33 -11 -40 -4 -6 -4 -9
1 -5 4 4 15 0 24 -9 12 -13 13 -17 3 -21 -7 -2 -18 -16 -24 -31 -10 -24 -11
-25 -18 -6 -8 19 -9 19 -9 -2 -1 -12 -6 -23 -13 -25 -6 -2 -12 -21 -12 -43 -1
-21 -7 -40 -14 -43 -7 -2 -12 -18 -12 -35 0 -18 -5 -39 -10 -47 -7 -12 -11 -8
-16 18 -5 23 -9 29 -15 21 -4 -7 -4 -18 0 -24 19 -24 18 -67 -1 -85 -11 -10
-17 -23 -13 -29 3 -6 1 -11 -5 -11 -7 0 -10 -7 -6 -15 3 -8 0 -14 -6 -12 -6 1
-12 -3 -15 -9 -2 -7 6 -10 24 -6 l28 5 -25 -22 -25 -22 30 6 c28 6 29 6 13
-12 -9 -10 -18 -27 -19 -37 -5 -23 -29 -34 -29 -14 0 11 -9 13 -31 10 l-31 -5
6 -56 c4 -40 3 -50 -4 -36 -8 15 -8 11 -3 -15 3 -19 6 -44 5 -55 -1 -11 -1
-31 0 -45 0 -14 2 -41 2 -60 1 -19 4 -37 8 -40 4 -3 -4 -32 -17 -63 -17 -43
-20 -57 -9 -53 11 4 14 -8 14 -62 1 -140 39 -208 142 -252 62 -26 169 -36 226
-21 50 14 107 61 116 95 8 32 -17 150 -49 228 -24 60 -23 77 8 78 4 0 7 9 7
19 0 13 -15 26 -45 41 -26 12 -53 36 -66 56 -18 30 -20 43 -14 102 11 108 9
202 -5 277 -8 39 -14 108 -15 155 -1 71 3 99 27 169 45 129 60 225 57 361 -4
148 8 345 21 345 4 0 12 42 12 63 0 12 3 22 7 22 8 0 11 122 10 415 0 233 -1
262 -13 325 -4 19 -9 58 -11 85 -5 79 -16 145 -35 217 -10 36 -16 69 -12 72 3
3 0 6 -7 6 -8 0 -11 6 -7 16 4 10 -1 25 -10 35 -11 12 -13 19 -5 19 7 0 9 5 4
13 -4 6 -9 23 -11 37 -1 14 -7 39 -13 57 -5 17 -12 44 -15 59 -3 15 -8 32 -11
37 -3 6 -7 22 -9 36 -2 15 -14 52 -28 83 -14 31 -22 59 -19 62 4 3 1 6 -5 6
-7 0 -12 7 -12 15 0 9 -9 25 -19 37 -11 11 -17 26 -14 34 3 7 -5 27 -17 44
-12 16 -18 30 -14 30 4 0 0 8 -9 18 -8 9 -16 22 -16 27 0 13 -40 55 -52 55
-14 0 -11 28 4 33 10 4 10 6 0 6 -7 1 -13 8 -13 16 0 8 -5 15 -11 15 -5 0 -7
5 -4 10 4 7 -6 9 -29 7 -24 -3 -39 0 -44 10 -5 8 -15 11 -25 7 -14 -5 -15 -9
-6 -20 18 -22 -8 -18 -38 6 -30 23 -39 20 -24 -8 6 -11 7 -22 4 -26 -4 -3 -14
11 -24 31 -9 21 -18 35 -18 32z"/>
<path d="M3700 4132 c0 -14 -60 -33 -82 -27 -19 6 -21 5 -10 -6 21 -23 15 -49
-13 -49 -14 0 -25 -5 -25 -11 0 -7 7 -8 18 -4 23 9 81 17 62 9 -14 -6 -34 -32
-35 -44 -1 -16 -20 -31 -53 -40 -21 -5 -46 -17 -57 -25 -15 -11 -6 -10 35 5
64 23 63 23 55 10 -4 -6 1 -7 12 -3 15 5 14 2 -4 -16 -26 -25 -45 -28 -36 -4
4 11 3 14 -6 9 -7 -5 -10 -14 -7 -22 3 -8 1 -14 -4 -14 -15 0 -85 -68 -78 -76
4 -3 26 12 50 35 46 44 61 51 51 25 -4 -11 -2 -15 8 -12 7 2 24 -7 36 -20 23
-25 24 -25 37 -6 17 22 2 37 -26 28 -10 -3 -18 -1 -18 5 0 6 9 11 20 11 24 0
43 34 38 65 -3 14 2 26 14 34 13 8 17 18 13 32 -4 11 -1 26 5 34 10 12 8 16
-10 23 l-22 8 26 17 c26 18 35 37 16 37 -5 0 -10 -3 -10 -8z"/>
<path d="M2636 3085 c-16 -14 -39 -25 -51 -25 -11 0 -26 -5 -33 -12 -7 -7 -12
-9 -12 -5 0 4 -19 -6 -42 -23 -22 -16 -46 -30 -53 -30 -13 0 -75 -62 -75 -75
0 -6 5 -2 11 8 16 28 30 20 18 -10 -6 -16 -10 -29 -10 -30 0 -2 -6 -18 -15
-38 -8 -19 -20 -59 -28 -87 -8 -29 -23 -77 -34 -105 -11 -29 -17 -53 -13 -53
4 0 7 -19 8 -42 1 -122 2 -124 18 -102 13 16 14 16 9 2 -7 -21 21 -26 30 -5 8
15 -2 -35 -11 -60 -6 -17 -5 -16 17 2 20 17 23 18 17 3 -7 -19 8 -25 18 -8 3
6 11 10 17 10 6 0 6 -6 -2 -15 -7 -9 -11 -18 -8 -21 3 -3 15 11 26 31 15 24
29 35 45 35 12 0 28 5 35 12 10 10 11 5 5 -22 l-6 -35 37 33 c20 17 44 32 54
32 9 0 24 5 32 11 12 9 11 10 -5 5 -20 -6 -20 -6 -1 9 20 15 21 39 13 325 -2
58 1 110 6 117 6 8 3 18 -7 29 -11 10 -14 24 -10 36 3 12 8 36 9 55 2 19 9 41
16 49 21 25 4 24 -25 -1z"/>
<path d="M3547 2268 c-46 -81 -70 -172 -63 -246 16 -192 18 -198 49 -193 5 1
11 -8 14 -19 3 -11 9 -20 14 -20 5 0 9 -8 10 -17 0 -10 3 -13 5 -6 4 9 -20 79
-56 158 -17 37 -22 105 -10 120 8 9 8 20 2 32 -7 13 -6 22 4 31 8 7 14 9 14 5
0 -4 5 -1 10 7 7 11 10 1 11 -35 1 -27 2 -56 2 -63 -1 -8 8 -23 18 -33 11 -11
17 -25 13 -30 -4 -8 -9 -7 -14 1 -15 25 -20 -8 -7 -51 8 -24 15 -48 16 -54 2
-5 7 -20 12 -33 5 -12 6 -43 2 -69 -4 -34 -3 -44 5 -39 8 5 12 -5 12 -33 0
-22 4 -42 8 -45 5 -3 7 -33 5 -68 -12 -215 -11 -322 2 -348 8 -15 17 -43 20
-61 3 -19 14 -46 25 -61 16 -21 17 -32 9 -60 -9 -31 -10 -212 -1 -203 2 2 15
-8 28 -22 22 -23 29 -23 25 0 -1 5 3 6 9 2 6 -3 8 -10 5 -15 -3 -5 1 -15 9
-23 8 -8 12 -18 8 -22 -4 -4 8 -5 26 -2 17 4 32 2 32 -2 0 -24 167 12 211 44
26 20 45 25 90 25 32 0 69 4 83 10 25 9 25 10 12 47 -27 77 -66 151 -81 157
-9 3 -15 14 -13 23 1 10 -6 33 -17 51 -19 31 -37 43 -32 20 3 -17 -44 -38 -70
-32 -13 4 -23 2 -23 -2 0 -9 -29 -14 -100 -17 -19 -1 -38 -6 -42 -12 -5 -6 -8
-6 -8 1 0 6 -10 10 -22 9 -13 -2 -34 4 -46 12 -13 8 -36 17 -50 19 -15 3 -28
7 -31 9 -2 2 9 44 24 92 22 69 28 106 27 170 -1 45 -6 92 -12 103 -18 33 -18
106 0 211 21 124 13 191 -33 284 -19 39 -39 86 -46 105 -26 83 -49 184 -44
196 4 10 0 12 -11 8 -12 -5 -15 -2 -10 10 12 31 -5 16 -29 -26z"/>
</g>
</svg>
